<svg width="33" height="33" viewBox="0 0 33 33" fill="none" xmlns="http://www.w3.org/2000/svg">
<path d="M30.25 29.645C30.1642 29.645 30.0935 29.6298 30.0298 29.6001C31.7428 29.2077 33 27.6916 33 25.85C33 23.892 31.5791 22.3015 29.7 22.0389V3.84998C29.7 1.70501 27.995 -7.62939e-06 25.85 -7.62939e-06H22V18.7H26.4V22H22H11H6.59997H3.84999C1.70502 22 0 23.7049 0 25.85C0 27.995 1.70502 29.7 3.84999 29.7H6.59997H11H22H26.4C26.675 31.5149 28.215 32.89 30.03 33C30.085 33 30.085 33 30.1401 33C30.5801 33 31.0201 32.835 31.3501 32.45C31.6801 32.175 31.9001 31.79 31.9001 31.35C31.955 30.91 31.79 30.47 31.46 30.14C31.13 29.81 30.69 29.645 30.25 29.645ZM23.1 1.1H24.2V17.6H23.1V1.1ZM25.3 17.6V12.65L26.1249 13.475C26.235 13.585 26.3449 13.64 26.5099 13.64C26.6749 13.64 26.8399 13.585 26.8949 13.475C27.1149 13.255 27.1149 12.925 26.8949 12.7049L25.2999 11.1099V9.56993L26.1249 10.3949C26.2349 10.5049 26.3449 10.5599 26.5099 10.5599C26.6749 10.5599 26.8398 10.5049 26.8948 10.3949C27.1148 10.1749 27.1148 9.84494 26.8948 9.6249L25.2998 8.0299V6.43497L26.1248 7.25996C26.2348 7.36998 26.3448 7.42495 26.5098 7.42495C26.6748 7.42495 26.8398 7.36998 26.8948 7.25996C27.1147 7.03998 27.1147 6.70999 26.8948 6.48995L25.2998 4.89495V3.30001L26.1247 4.125C26.2348 4.23502 26.3447 4.29 26.5097 4.29C26.6747 4.29 26.7847 4.23502 26.8947 4.125C27.1147 3.90503 27.1147 3.57503 26.8947 3.35499L25.2997 1.75999V1.1H25.8497C27.3897 1.1 28.5996 2.31003 28.5996 3.84998V22H27.4996V17.6H25.3ZM29.1499 23.1C30.69 23.1 31.8999 24.31 31.8999 25.85C31.8999 27.2011 30.9685 28.298 29.6999 28.5468V28.545H28.8749L28.7649 28.6H26.3999V23.1H29.1499ZM3.84999 28.6C2.30997 28.6 1.10001 27.3899 1.10001 25.85C1.10001 24.31 2.31003 23.1 3.84999 23.1H6.59997V28.6H3.84999ZM7.69998 28.6V23.1H9.89999V28.6H7.69998ZM11 28.6V23.1H22V28.6H11ZM23.1 28.6V23.1H25.3V28.6H23.1ZM30.635 31.79C30.525 31.9 30.305 31.955 30.14 31.955C28.985 31.9 28.05 31.13 27.665 30.0849C27.7199 30.03 27.83 30.03 27.94 30.0849L28.49 29.9749C28.6 29.9749 28.655 29.9199 28.765 29.9199C28.8199 30.0849 28.93 30.2499 29.095 30.4149C29.425 30.7449 29.8099 30.9099 30.25 30.9099C30.415 30.9099 30.525 30.9649 30.6349 31.0749C30.7449 31.185 30.7999 31.2949 30.7999 31.4599C30.8 31.625 30.69 31.735 30.635 31.79Z" fill="white"/>
</svg>
