<svg width="30" height="20" viewBox="0 0 30 20" fill="none" xmlns="http://www.w3.org/2000/svg">
<path d="M29.9885 2.78752C29.9833 2.16065 29.9768 1.52198 29.9768 0.876839C29.9768 0.517123 29.6848 0.22516 29.3251 0.22516C28.9654 0.22516 28.6734 0.517123 28.6734 0.876839C28.6734 10.7886 23.249 12.0606 18.5232 12.0606C18.1935 12.0606 17.8702 12.0554 17.5574 12.0449C17.3437 10.5149 16.2737 9.34835 14.9886 9.34835C13.7179 9.34835 12.657 10.4913 12.4315 12.0449C12.1082 12.0554 11.7759 12.0619 11.4383 12.0619C6.64604 12.0619 1.69347 10.7298 1.30248 0.850752C1.28812 0.489753 0.975327 0.218623 0.626059 0.22516C0.266404 0.239517 -0.0138289 0.541866 0.000527916 0.901581C0.000527916 0.900298 0.000527916 0.902864 0.000527916 0.905491C0.0422544 1.97162 0.0526402 3.01558 0.0618041 4.02435C0.103531 8.45695 0.140003 12.2848 2.85479 14.4222C6.14434 17.0093 11.0591 19.7749 14.9886 19.7749C18.9181 19.7749 23.8317 17.0093 27.1225 14.4222C30.0759 12.0971 30.0354 7.78309 29.9885 2.78752Z" fill="white"/>
<path d="M6.94715 9.51519C7.62094 9.51519 8.37947 9.05382 9.33876 8.46861C10.6173 7.6879 12.2087 6.71824 13.8613 6.71824C13.9968 6.71824 14.135 6.72477 14.3383 6.74298C14.5585 6.74298 14.7749 6.70125 14.9913 6.61523C15.2128 6.69997 15.3823 6.7508 15.7081 6.73907C17.5105 6.55011 19.257 7.624 20.6411 8.46855C21.6004 9.05376 22.3589 9.51513 23.0327 9.51513C23.382 9.51513 23.6883 9.3913 23.9229 9.15805C24.1719 8.90909 24.2657 8.55982 24.1771 8.20011C23.7587 6.47582 18.1023 3.54336 16.4836 3.03378C16.4028 2.99468 16.3206 2.9686 16.1851 2.93084C15.9935 2.8761 15.8241 2.84482 15.6429 2.83181C15.4227 2.83181 15.2063 2.87354 14.99 2.95955C14.771 2.87482 14.5494 2.83835 14.2901 2.83444C14.1572 2.84488 13.9917 2.87745 13.7479 2.94392C13.6619 2.96737 13.5785 2.99474 13.5863 2.99737C11.8777 3.54214 6.22259 6.4746 5.80288 8.19889C5.71686 8.5586 5.80942 8.90787 6.05831 9.15682C6.29162 9.39142 6.59788 9.51519 6.94715 9.51519Z" fill="white"/>
</svg>
