<svg width="100" height="74" viewBox="0 0 100 74" fill="none" xmlns="http://www.w3.org/2000/svg">
<path d="M80.0006 73.9985H22.0006C21.8066 73.9985 21.6126 73.9685 21.4266 73.9145L1.42659 67.9145C0.752593 67.7105 0.232593 67.1705 0.0605925 66.4865C-0.111407 65.8045 0.0885926 65.0825 0.586593 64.5845C0.800593 64.3705 5.04659 60.1565 10.1186 57.5065C6.38459 55.1825 1.57459 53.9545 1.51459 53.9385C0.816593 53.7625 0.264593 53.2265 0.0745926 52.5325C-0.117407 51.8365 0.0765926 51.0945 0.586593 50.5845C0.884593 50.2865 7.05859 44.2345 17.9846 42.4745C15.1066 40.7945 11.2846 38.8805 7.51459 37.9365C6.70259 37.7325 6.10259 37.0465 6.01259 36.2145C5.92259 35.3825 6.35859 34.5825 7.10659 34.2085C10.4566 32.5345 13.8966 30.8145 18.5146 30.2165C15.9546 26.6485 10.4306 20.4845 1.45059 17.9205C0.658593 17.6945 0.0845925 17.0045 0.00859255 16.1845C-0.0674074 15.3625 0.368593 14.5785 1.10459 14.2105C12.7226 8.4045 32.7166 9.7445 44.2066 19.3925C44.1186 14.9285 43.1606 7.9905 38.5846 3.4145C37.9806 2.8105 37.8266 1.8885 38.2026 1.1225C38.5786 0.354499 39.4026 -0.0935012 40.2466 0.0164988C49.6866 1.1965 58.0346 5.7125 63.1446 12.4045C66.7646 17.1445 68.4866 22.5565 68.1866 28.1725C73.8486 29.0785 77.3846 33.3385 78.9146 35.6385L97.4246 30.0845C98.2646 29.8345 99.1806 30.1625 99.6686 30.8985C100.155 31.6345 100.101 32.6045 99.5366 33.2805L91.2986 43.1665L98.7426 46.1425C99.3666 46.3925 99.8246 46.9385 99.9586 47.5985C100.095 48.2565 99.8886 48.9405 99.4146 49.4145L88.8286 59.9985L95.4146 66.5845C95.9146 67.0845 96.1146 67.8145 95.9366 68.5005C95.7586 69.1865 95.2306 69.7265 94.5506 69.9225L80.5506 73.9225C80.3726 73.9745 80.1866 73.9985 80.0006 73.9985ZM22.2946 69.9985H79.7206L90.1826 67.0105L84.5866 61.4125C83.8046 60.6305 83.8046 59.3665 84.5866 58.5845L94.4426 48.7285L87.2586 45.8545C86.6646 45.6165 86.2186 45.1085 86.0626 44.4865C85.9046 43.8645 86.0546 43.2065 86.4646 42.7145L92.2106 35.8205L78.5766 39.9105C77.6446 40.1965 76.6486 39.7585 76.2126 38.8905C76.1786 38.8285 72.6326 31.9985 66.0006 31.9985C65.4206 31.9985 64.8706 31.7465 64.4906 31.3085C64.1106 30.8705 63.9406 30.2885 64.0226 29.7145C64.7766 24.4345 63.3746 19.2865 59.9706 14.8285C56.4146 10.1705 51.0126 6.7145 44.7246 4.9725C49.4586 13.3765 48.0566 23.7645 47.9806 24.2805C47.8686 25.0625 47.3066 25.7045 46.5466 25.9205C45.7866 26.1405 44.9706 25.8845 44.4646 25.2765C36.4326 15.6405 19.3986 12.8225 7.68259 15.9965C18.7126 21.1705 23.5606 30.6465 23.7906 31.1025C24.1006 31.7225 24.0666 32.4585 23.7026 33.0485C23.3366 33.6385 22.6946 33.9985 22.0006 33.9985C18.5846 33.9985 15.8726 34.7025 13.3786 35.6985C19.7046 38.3085 24.9286 42.1945 25.2006 42.4005C25.8886 42.9165 26.1706 43.8165 25.8986 44.6325C25.6266 45.4485 24.8626 45.9985 24.0006 45.9985C15.6506 45.9985 9.53259 49.0585 6.22459 51.2485C9.06459 52.3005 12.8966 54.0645 15.4146 56.5845C15.9046 57.0745 16.1066 57.7845 15.9466 58.4585C15.7866 59.1345 15.2906 59.6765 14.6326 59.8965C11.4446 60.9605 8.18059 63.3185 6.00259 65.1125L22.2946 69.9985Z" fill="white"/>
</svg>
