<svg width="33" height="33" viewBox="0 0 33 33" fill="none" xmlns="http://www.w3.org/2000/svg">
<g clip-path="url(#clip0_92_1528)">
<path d="M32.9159 15.3324L29.103 11.5196C29.2086 11.2148 29.4105 10.5558 29.4924 9.76881C29.6288 8.4587 29.3651 7.36877 28.7311 6.5916C28.7931 6.45094 28.8265 6.30094 28.8314 6.14987L29.7331 5.92273L29.8085 6.36963C29.8322 6.50979 29.9537 6.60897 30.0912 6.60897C30.107 6.60897 30.1231 6.60761 30.1393 6.60488L32.1813 6.26018C32.3376 6.23377 32.4429 6.08564 32.4166 5.92933L32.178 4.51559C32.1652 4.44052 32.1233 4.37356 32.0613 4.32943C31.9992 4.28536 31.9221 4.26778 31.8471 4.28027L29.805 4.62496C29.73 4.63767 29.663 4.67965 29.6189 4.74166C29.5747 4.80366 29.5571 4.88074 29.5697 4.95581L29.637 5.35469L28.7113 5.58786C28.6146 5.39007 28.4631 5.21259 28.2455 5.08521C27.839 4.84723 27.3188 4.87084 26.9402 5.15109C26.6021 5.40141 26.4425 5.78192 26.4569 6.15691L25.809 6.32018L25.9493 6.87695L26.6168 6.70872C26.6672 6.79556 26.7283 6.87781 26.8026 6.95216C26.9015 7.05105 27.014 7.12749 27.1336 7.18426C27.3476 7.65261 27.1262 8.58895 26.8666 9.28309L23.0408 5.45732C22.987 5.4035 22.914 5.37321 22.8378 5.37321C22.7617 5.37321 22.6887 5.4035 22.6348 5.45732L13.9391 14.1532L12.8091 13.0232C12.7553 12.9694 12.6822 12.9391 12.6061 12.9391C12.53 12.9391 12.457 12.9694 12.4031 13.0232L12.0804 13.3459L11.773 13.0385L12.734 12.0775C12.8461 11.9654 12.8461 11.7837 12.734 11.6716L11.8141 10.7517C11.702 10.6396 11.5202 10.6396 11.4081 10.7517L9.08011 13.0796C8.96801 13.1917 8.96801 13.3735 9.08011 13.4856L10 14.4055C10.0561 14.4615 10.1296 14.4896 10.203 14.4896C10.2765 14.4896 10.35 14.4615 10.4061 14.4055L11.367 13.4445L11.6744 13.752L11.3518 14.0746C11.2397 14.1867 11.2397 14.3684 11.3518 14.4805L11.8808 15.0095L10.14 16.7503L9.93019 16.5405C9.87227 16.4826 9.79232 16.4513 9.71072 16.4569L8.51573 16.5255C8.4454 16.5295 8.37901 16.5593 8.32921 16.6091L3.48556 21.4527C3.43576 21.5024 3.40605 21.5688 3.40196 21.6392L3.33342 22.8342C3.32875 22.9159 3.35918 22.9957 3.41703 23.0536L3.66462 23.3012L2.29753 24.6684C2.21794 24.748 2.18565 24.8669 2.22454 24.9725C2.32186 25.2364 2.25662 25.5353 2.05883 25.7332C1.86585 25.9261 1.58395 25.9931 1.32343 25.9079C1.19167 25.8647 1.04813 25.922 0.981966 26.0437L0.319483 27.2636C0.258767 27.3753 0.278862 27.5137 0.368787 27.6035L0.541458 27.7762L0.0840143 28.2336C-0.0280861 28.3457 -0.0280861 28.5275 0.0840143 28.6396C0.196115 28.7517 0.377829 28.7517 0.48993 28.6396L0.947374 28.1822L1.19497 28.4298C1.25102 28.4858 1.32451 28.5139 1.398 28.5139C1.47149 28.5139 1.54491 28.4858 1.60103 28.4298L5.19707 24.8337L5.44215 25.0788C5.49849 25.1352 5.57535 25.1673 5.65502 25.1653C5.65803 25.1652 5.66104 25.1651 5.66406 25.1649L6.85905 25.0963C6.92939 25.0923 6.99577 25.0625 7.04558 25.0127L11.8892 20.1691C11.939 20.1194 11.9687 20.0529 11.9728 19.9826L12.0414 18.7876C12.0461 18.7058 12.0157 18.626 11.9578 18.5681L11.748 18.3583L13.4887 16.6175L14.0177 17.1465C14.0715 17.2003 14.1446 17.2306 14.2207 17.2306C14.2969 17.2306 14.3699 17.2003 14.4237 17.1465L15.4751 16.0952C15.5872 15.9831 15.5872 15.8013 15.4751 15.6892L14.3451 14.5593L14.4648 14.4396L24.1368 24.1116C24.1906 24.1655 24.2637 24.1957 24.3398 24.1957C24.416 24.1957 24.489 24.1655 24.5429 24.1116L32.9159 15.7385C33.028 15.6263 33.028 15.4445 32.9159 15.3324ZM31.6596 4.89431L31.8027 5.74195L30.3268 5.99105L30.1837 5.14341L31.6596 4.89431ZM10.2031 13.7965L9.68912 13.2826L11.6111 11.3607L12.1251 11.8746L10.2031 13.7965ZM1.398 27.8207L0.926346 27.3491L1.38329 26.5076C1.77786 26.5591 2.17632 26.4275 2.46475 26.1391C2.77406 25.8297 2.9031 25.3836 2.81655 24.9612L4.0704 23.7074L4.79087 24.4278L1.398 27.8207ZM11.4059 19.8404L6.71696 24.5294L5.75958 24.5844L3.91401 22.7387L3.96892 21.7813L8.6579 17.0924L9.6152 17.0375L11.4608 18.883L11.4059 19.8404ZM11.342 17.9522L10.5461 17.1563L12.2868 15.4155L13.0827 16.2114L11.342 17.9522ZM14.2207 16.5375L11.9608 14.2776L12.6062 13.6323L14.8661 15.8921L14.2207 16.5375ZM27.2086 5.67571C27.3286 5.55571 27.4863 5.49572 27.6439 5.49572C27.8015 5.49572 27.9593 5.55571 28.0792 5.67571C28.3192 5.91577 28.3192 6.30633 28.0792 6.54639C27.8392 6.78638 27.4486 6.78638 27.2086 6.54639C26.9687 6.30633 26.9687 5.9157 27.2086 5.67571ZM27.6314 8.76873C27.789 8.17565 27.8322 7.68246 27.762 7.2942C27.9768 7.27296 28.1864 7.19265 28.366 7.05507C29.3012 8.32449 28.8948 10.2235 28.6456 11.0621L27.308 9.7246C27.3915 9.52092 27.525 9.16948 27.6314 8.76873ZM29.1904 15.498L24.3021 20.3862L21.5916 17.6757L26.4798 12.7875L29.1904 15.498ZM23.1377 20.0337L22.8304 20.3411L21.6369 19.1475L21.9442 18.8402L23.1377 20.0337ZM23.5436 20.4397L24.0991 20.9951C24.1529 21.049 24.226 21.0792 24.3021 21.0792C24.3783 21.0792 24.4513 21.049 24.5052 20.9951L29.7994 15.7009C29.9115 15.5888 29.9115 15.407 29.7994 15.295L29.2439 14.7395L29.5512 14.4322L30.4667 15.3477L24.1519 21.6625L23.2363 20.747L23.5436 20.4397ZM28.8379 14.3336L27.6443 13.14L27.9517 12.8327L29.1453 14.0263L28.8379 14.3336ZM27.2384 12.734L26.6829 12.1785C26.6291 12.1247 26.556 12.0944 26.4798 12.0944C26.4037 12.0944 26.3307 12.1247 26.2768 12.1785L20.9826 17.4728C20.8705 17.5849 20.8705 17.7667 20.9826 17.8787L21.5381 18.4342L21.2308 18.7415L19.1436 16.6543L19.4509 16.347L20.0064 16.9025C20.0602 16.9563 20.1333 16.9866 20.2094 16.9866C20.2855 16.9866 20.3585 16.9563 20.4124 16.9025L25.7067 11.6082C25.7605 11.5544 25.7907 11.4813 25.7907 11.4052C25.7907 11.3292 25.7605 11.2561 25.7067 11.2023L25.1512 10.6468L25.4585 10.3395L27.5457 12.4267L27.2384 12.734ZM25.0977 11.4052L20.2094 16.2935L17.4989 13.5829L22.3871 8.69481L25.0977 11.4052ZM19.045 15.9411L18.7377 16.2484L17.5441 15.0548L17.8514 14.7475L19.045 15.9411ZM24.7452 10.2408L23.5516 9.04733L23.859 8.73995L25.0525 9.93351L24.7452 10.2408ZM23.1457 8.64134L22.5902 8.08587C22.478 7.97369 22.2963 7.97377 22.1842 8.08587L16.89 13.3801C16.7779 13.4922 16.7779 13.6739 16.89 13.786L17.4455 14.3415L17.1382 14.6488L15.6968 13.2074L22.0117 6.89252L23.4531 8.33389L23.1457 8.64134ZM24.3398 23.5025L14.8707 14.0336L15.2908 13.6134L23.9488 22.2715C24.0027 22.3253 24.0757 22.3556 24.1519 22.3556C24.228 22.3556 24.301 22.3253 24.3549 22.2715L31.0757 15.5507C31.1878 15.4386 31.1878 15.2568 31.0757 15.1448L22.4176 6.48668L22.8379 6.06641L32.3069 15.5354L24.3398 23.5025Z" fill="white"/>
</g>
<defs>
<clipPath id="clip0_92_1528">
<rect width="33" height="33" fill="white"/>
</clipPath>
</defs>
</svg>
