<svg width="53" height="53" viewBox="0 0 53 53" fill="none" xmlns="http://www.w3.org/2000/svg">
<g filter="url(#filter0_d_152_1190)">
<g filter="url(#filter1_b_152_1190)">
<path d="M4 22.5C4 10.0736 14.0736 0 26.5 0V0C38.9264 0 49 10.0736 49 22.5V22.5C49 34.9264 38.9264 45 26.5 45V45C14.0736 45 4 34.9264 4 22.5V22.5Z" fill="#FF9900" fill-opacity="0.35"/>
</g>
<path d="M41.9885 21.7875C41.9833 21.1606 41.9768 20.522 41.9768 19.8768C41.9768 19.5171 41.6848 19.2252 41.3251 19.2252C40.9654 19.2252 40.6734 19.5171 40.6734 19.8768C40.6734 29.7886 35.249 31.0606 30.5232 31.0606C30.1935 31.0606 29.8702 31.0554 29.5574 31.0449C29.3437 29.5149 28.2737 28.3483 26.9886 28.3483C25.7179 28.3483 24.657 29.4913 24.4315 31.0449C24.1082 31.0554 23.7759 31.0619 23.4383 31.0619C18.646 31.0619 13.6935 29.7298 13.3025 19.8507C13.2881 19.4897 12.9753 19.2186 12.6261 19.2252C12.2664 19.2395 11.9862 19.5419 12.0005 19.9016C12.0005 19.9003 12.0005 19.9029 12.0005 19.9055C12.0423 20.9716 12.0526 22.0156 12.0618 23.0243C12.1035 27.4569 12.14 31.2848 14.8548 33.4222C18.1443 36.0093 23.0591 38.7749 26.9886 38.7749C30.9181 38.7749 35.8317 36.0093 39.1225 33.4222C42.0759 31.0971 42.0354 26.7831 41.9885 21.7875Z" fill="#120F15"/>
<path d="M18.9471 28.5152C19.6209 28.5152 20.3795 28.0538 21.3388 27.4686C22.6173 26.6879 24.2087 25.7182 25.8613 25.7182C25.9968 25.7182 26.135 25.7248 26.3383 25.743C26.5585 25.743 26.7749 25.7012 26.9913 25.6152C27.2128 25.7 27.3823 25.7508 27.7081 25.7391C29.5105 25.5501 31.257 26.624 32.6411 27.4685C33.6004 28.0538 34.3589 28.5151 35.0327 28.5151C35.382 28.5151 35.6883 28.3913 35.9229 28.158C36.1719 27.9091 36.2657 27.5598 36.1771 27.2001C35.7587 25.4758 30.1023 22.5434 28.4836 22.0338C28.4028 21.9947 28.3206 21.9686 28.1851 21.9308C27.9935 21.8761 27.8241 21.8448 27.6429 21.8318C27.4227 21.8318 27.2063 21.8735 26.99 21.9595C26.771 21.8748 26.5494 21.8383 26.2901 21.8344C26.1572 21.8449 25.9917 21.8774 25.7479 21.9439C25.6619 21.9674 25.5785 21.9947 25.5863 21.9974C23.8777 22.5421 18.2226 25.4746 17.8029 27.1989C17.7169 27.5586 17.8094 27.9079 18.0583 28.1568C18.2916 28.3914 18.5979 28.5152 18.9471 28.5152Z" fill="#120F15"/>
</g>
<defs>
<filter id="filter0_d_152_1190" x="0" y="0" width="53" height="53" filterUnits="userSpaceOnUse" color-interpolation-filters="sRGB">
<feFlood flood-opacity="0" result="BackgroundImageFix"/>
<feColorMatrix in="SourceAlpha" type="matrix" values="0 0 0 0 0 0 0 0 0 0 0 0 0 0 0 0 0 0 127 0" result="hardAlpha"/>
<feOffset dy="4"/>
<feGaussianBlur stdDeviation="2"/>
<feComposite in2="hardAlpha" operator="out"/>
<feColorMatrix type="matrix" values="0 0 0 0 0 0 0 0 0 0 0 0 0 0 0 0 0 0 0.25 0"/>
<feBlend mode="normal" in2="BackgroundImageFix" result="effect1_dropShadow_152_1190"/>
<feBlend mode="normal" in="SourceGraphic" in2="effect1_dropShadow_152_1190" result="shape"/>
</filter>
<filter id="filter1_b_152_1190" x="-11" y="-15" width="75" height="75" filterUnits="userSpaceOnUse" color-interpolation-filters="sRGB">
<feFlood flood-opacity="0" result="BackgroundImageFix"/>
<feGaussianBlur in="BackgroundImageFix" stdDeviation="7.5"/>
<feComposite in2="SourceAlpha" operator="in" result="effect1_backgroundBlur_152_1190"/>
<feBlend mode="normal" in="SourceGraphic" in2="effect1_backgroundBlur_152_1190" result="shape"/>
</filter>
</defs>
</svg>
