<svg width="45" height="45" viewBox="0 0 45 45" fill="none" xmlns="http://www.w3.org/2000/svg">
<g filter="url(#filter0_b_152_1166)">
<path d="M0 22.5C0 10.0736 10.0736 0 22.5 0V0C34.9264 0 45 10.0736 45 22.5V22.5C45 34.9264 34.9264 45 22.5 45V45C10.0736 45 0 34.9264 0 22.5V22.5Z" fill="white" fill-opacity="0.35"/>
</g>
<path d="M37.9885 21.7875C37.9833 21.1606 37.9768 20.522 37.9768 19.8768C37.9768 19.5171 37.6848 19.2252 37.3251 19.2252C36.9654 19.2252 36.6734 19.5171 36.6734 19.8768C36.6734 29.7886 31.249 31.0606 26.5232 31.0606C26.1935 31.0606 25.8702 31.0554 25.5574 31.0449C25.3437 29.5149 24.2737 28.3483 22.9886 28.3483C21.7179 28.3483 20.657 29.4913 20.4315 31.0449C20.1082 31.0554 19.7759 31.0619 19.4383 31.0619C14.646 31.0619 9.69347 29.7298 9.30248 19.8507C9.28812 19.4897 8.97533 19.2186 8.62606 19.2252C8.2664 19.2395 7.98617 19.5419 8.00053 19.9016C8.00053 19.9003 8.00053 19.9029 8.00053 19.9055C8.04225 20.9716 8.05264 22.0156 8.0618 23.0243C8.10353 27.4569 8.14 31.2848 10.8548 33.4222C14.1443 36.0093 19.0591 38.7749 22.9886 38.7749C26.9181 38.7749 31.8317 36.0093 35.1225 33.4222C38.0759 31.0971 38.0354 26.7831 37.9885 21.7875Z" fill="#120F15"/>
<path d="M14.9471 28.5152C15.6209 28.5152 16.3795 28.0538 17.3388 27.4686C18.6173 26.6879 20.2087 25.7182 21.8613 25.7182C21.9968 25.7182 22.135 25.7248 22.3383 25.743C22.5585 25.743 22.7749 25.7012 22.9913 25.6152C23.2128 25.7 23.3823 25.7508 23.7081 25.7391C25.5105 25.5501 27.257 26.624 28.6411 27.4685C29.6004 28.0538 30.3589 28.5151 31.0327 28.5151C31.382 28.5151 31.6883 28.3913 31.9229 28.158C32.1719 27.9091 32.2657 27.5598 32.1771 27.2001C31.7587 25.4758 26.1023 22.5434 24.4836 22.0338C24.4028 21.9947 24.3206 21.9686 24.1851 21.9308C23.9935 21.8761 23.8241 21.8448 23.6429 21.8318C23.4227 21.8318 23.2063 21.8735 22.99 21.9595C22.771 21.8748 22.5494 21.8383 22.2901 21.8344C22.1572 21.8449 21.9917 21.8774 21.7479 21.9439C21.6619 21.9674 21.5785 21.9947 21.5863 21.9974C19.8777 22.5421 14.2226 25.4746 13.8029 27.1989C13.7169 27.5586 13.8094 27.9079 14.0583 28.1568C14.2916 28.3914 14.5979 28.5152 14.9471 28.5152Z" fill="#120F15"/>
<defs>
<filter id="filter0_b_152_1166" x="-15" y="-15" width="75" height="75" filterUnits="userSpaceOnUse" color-interpolation-filters="sRGB">
<feFlood flood-opacity="0" result="BackgroundImageFix"/>
<feGaussianBlur in="BackgroundImageFix" stdDeviation="7.5"/>
<feComposite in2="SourceAlpha" operator="in" result="effect1_backgroundBlur_152_1166"/>
<feBlend mode="normal" in="SourceGraphic" in2="effect1_backgroundBlur_152_1166" result="shape"/>
</filter>
</defs>
</svg>
